<svg xmlns="http://www.w3.org/2000/svg" xmlns:xlink="http://www.w3.org/1999/xlink" width="102" height="102" viewBox="0 0 102 102">
  <defs>
    <clipPath id="clip-i-instagram">
      <rect width="102" height="102"/>
    </clipPath>
  </defs>
  <g id="i-instagram" clip-path="url(#clip-i-instagram)">
    <path id="instagram_2_" data-name="instagram (2)" d="M27.955,45.476A14.367,14.367,0,1,0,42.321,59.842,14.344,14.344,0,0,0,27.955,45.476Zm0,23.707a9.34,9.34,0,1,1,9.34-9.34,9.357,9.357,0,0,1-9.34,9.34ZM46.26,44.888a3.351,3.351,0,1,1-3.351-3.351A3.343,3.343,0,0,1,46.26,44.888Zm9.515,3.4c-.213-4.489-1.238-8.465-4.526-11.741S44,32.247,39.508,32.022c-4.626-.263-18.493-.263-23.119,0-4.476.213-8.452,1.238-11.741,4.514S.347,43.788.122,48.277C-.141,52.9-.141,66.769.122,71.4c.213,4.489,1.238,8.465,4.526,11.741s7.252,4.3,11.741,4.526c4.626.263,18.493.263,23.119,0,4.489-.213,8.465-1.238,11.741-4.526s4.3-7.252,4.526-11.741C56.038,66.769,56.038,52.915,55.775,48.289ZM49.8,76.36a9.456,9.456,0,0,1-5.327,5.327c-3.689,1.463-12.441,1.125-16.517,1.125s-12.841.325-16.517-1.125A9.456,9.456,0,0,1,6.111,76.36C4.648,72.671,4.986,63.919,4.986,59.842S4.661,47,6.111,43.325A9.456,9.456,0,0,1,11.438,38c3.689-1.463,12.441-1.125,16.517-1.125S40.8,36.548,44.472,38A9.456,9.456,0,0,1,49.8,43.325c1.463,3.689,1.125,12.441,1.125,16.517S51.261,72.684,49.8,76.36Z" transform="translate(23.484 -8.416)" fill="#fff"/>
  </g>
</svg>
