<svg xmlns="http://www.w3.org/2000/svg" xmlns:xlink="http://www.w3.org/1999/xlink" width="102" height="102" viewBox="0 0 102 102">
  <defs>
    <clipPath id="clip-i-youtube">
      <rect width="102" height="102"/>
    </clipPath>
  </defs>
  <g id="i-youtube" clip-path="url(#clip-i-youtube)">
    <path id="youtube" d="M77.44,71.023A8.022,8.022,0,0,0,71.8,65.343C66.817,64,46.854,64,46.854,64S26.89,64,21.911,65.343a8.022,8.022,0,0,0-5.644,5.681c-1.334,5.011-1.334,15.466-1.334,15.466s0,10.455,1.334,15.466a7.9,7.9,0,0,0,5.644,5.59c4.979,1.343,24.942,1.343,24.942,1.343s19.964,0,24.942-1.343a7.9,7.9,0,0,0,5.644-5.59c1.334-5.011,1.334-15.466,1.334-15.466S78.774,76.034,77.44,71.023ZM40.324,95.982V77L57.01,86.49Z" transform="translate(4.067 -35)" fill="#fff"/>
  </g>
</svg>
