<svg xmlns="http://www.w3.org/2000/svg" xmlns:xlink="http://www.w3.org/1999/xlink" width="733" height="205" viewBox="0 0 733 205">
  <defs>
    <linearGradient id="linear-gradient" x1="0.903" y1="0.087" x2="0.106" y2="0.828" gradientUnits="objectBoundingBox">
      <stop offset="0" stop-color="#0043ff"/>
      <stop offset="1" stop-color="#0086ff"/>
    </linearGradient>
    <clipPath id="clip-path">
      <path id="Trazado_31886" data-name="Trazado 31886" d="M77.071,153.131,23.494,99.553a35.092,35.092,0,0,1-3.72-4.409L55.427,85.59A29.072,29.072,0,0,1,91.033,121.2L81.48,156.85a35.1,35.1,0,0,1-4.409-3.719M38.776,42.521l73.187-19.609c25.347-6.792,48.541,16.4,41.749,41.75L134.1,137.849a33.946,33.946,0,0,1-30.855,25.206L120.731,97.8A34.219,34.219,0,0,0,78.822,55.894L13.569,73.377A33.947,33.947,0,0,1,38.776,42.521M124.018,9.615,34.81,33.517c-34.893,9.35-46.58,52.967-21.036,78.51l65.305,65.305a46.278,46.278,0,0,0,32.955,13.774h.086A46.8,46.8,0,0,0,157.588,156.3l23.9-89.208C189.72,36.38,165.976,7.966,136.378,7.966a47.651,47.651,0,0,0-12.36,1.649" fill="url(#linear-gradient)"/>
    </clipPath>
    <clipPath id="clip-MountainPass">
      <rect width="733" height="205"/>
    </clipPath>
  </defs>
  <g id="MountainPass" clip-path="url(#clip-MountainPass)">
    <g id="Grupo_19777" data-name="Grupo 19777" transform="translate(1070 7082)">
      <path id="Trazado_31874" data-name="Trazado 31874" d="M287.085,27.282a24.706,24.706,0,0,1,8.459,1.321,15.856,15.856,0,0,1,6.02,3.76,18.594,18.594,0,0,1,3.887,6.172,34.557,34.557,0,0,1,2.109,8.18,75.772,75.772,0,0,1,.609,10.186V85.5H288.66V56.9q0-13.107-8.84-13.107a8.729,8.729,0,0,0-7.391,3.454q-2.617,3.456-2.617,9.653V85.5H250.3V56.9q0-13.107-8.892-13.107a8.8,8.8,0,0,0-7.417,3.454q-2.643,3.456-2.641,9.653V85.5H211.845V28.3h18.594l.915,6.807q4.164-7.824,17.273-7.824,13.919,0,18.441,11.278,5.843-11.277,20.017-11.278" transform="translate(-1065 -7075)" fill="#333"/>
      <path id="Trazado_31875" data-name="Trazado 31875" d="M358.566,84.462a38.37,38.37,0,0,1-24.183,0,31.423,31.423,0,0,1-10.084-5.64,25.933,25.933,0,0,1-6.96-9.347A30.139,30.139,0,0,1,314.773,56.9a30.316,30.316,0,0,1,2.566-12.6,25.656,25.656,0,0,1,6.96-9.348,32.115,32.115,0,0,1,10.084-5.639,37.874,37.874,0,0,1,24.183,0,32.131,32.131,0,0,1,10.085,5.639,25.678,25.678,0,0,1,6.96,9.348,30.315,30.315,0,0,1,2.565,12.6,30.138,30.138,0,0,1-2.565,12.574,25.956,25.956,0,0,1-6.96,9.347,31.439,31.439,0,0,1-10.085,5.64M337.737,66.426a12.388,12.388,0,0,0,17.426,0,13.03,13.03,0,0,0,3.505-9.525,13.036,13.036,0,0,0-3.505-9.527,12.39,12.39,0,0,0-17.426,0,13.037,13.037,0,0,0-3.506,9.527,13.03,13.03,0,0,0,3.506,9.525" transform="translate(-1065 -7075)" fill="#333"/>
      <path id="Trazado_31876" data-name="Trazado 31876" d="M404.29,28.3V56.9q0,6.5,2.21,9.8t7.087,3.3a9.265,9.265,0,0,0,7.773-3.455q2.693-3.455,2.693-9.652V28.3h19.508V85.5H424.916l-.863-6.808a13.75,13.75,0,0,1-6.529,5.742,25.75,25.75,0,0,1-10.745,2.031q-11.787,0-16.892-7.493T384.781,56.9V28.3Z" transform="translate(-1065 -7075)" fill="#333"/>
      <path id="Trazado_31877" data-name="Trazado 31877" d="M491.063,85.5V56.9q0-6.5-2.21-9.805t-7.087-3.3a9.337,9.337,0,0,0-7.8,3.454Q471.249,50.7,471.25,56.9V85.5H451.741V28.3h18.593l.916,6.808a13.871,13.871,0,0,1,6.528-5.767,25.453,25.453,0,0,1,10.745-2.058q11.785,0,16.893,7.52t5.105,22.1V85.5Z" transform="translate(-1065 -7075)" fill="#333"/>
      <path id="Trazado_31878" data-name="Trazado 31878" d="M525.661,15.6h19.458V28.3h12.8v15.14h-12.8V63.15q0,5.079,3.912,6.3,3.352,1.218,8.891.253v15.9a77.365,77.365,0,0,1-11.329.812q-11.23,0-16.08-5.486t-4.852-17.07V43.438h-6.909V28.3h6.909Z" transform="translate(-1065 -7075)" fill="#333"/>
      <path id="Trazado_31879" data-name="Trazado 31879" d="M590.691,27.281a26.886,26.886,0,0,1,10.948,2.058,13.774,13.774,0,0,1,6.731,5.767l.915-6.808h18.594V85.5H609.285L608.37,78.7a13,13,0,0,1-6.655,5.792,27.894,27.894,0,0,1-11.024,1.98,24.254,24.254,0,0,1-18.7-8.255q-7.52-8.256-7.519-21.312t7.519-21.338a24.222,24.222,0,0,1,18.7-8.282m-3.226,39.145a12.356,12.356,0,0,0,17.4,0A13.029,13.029,0,0,0,608.37,56.9a13.036,13.036,0,0,0-3.505-9.527,12.359,12.359,0,0,0-17.4,0,13.091,13.091,0,0,0-3.48,9.527,13.085,13.085,0,0,0,3.48,9.525" transform="translate(-1065 -7075)" fill="#333"/>
      <path id="Trazado_31880" data-name="Trazado 31880" d="M645.863,22.455a10.769,10.769,0,0,1-7.925-3.327,10.891,10.891,0,0,1-3.3-7.951,10.749,10.749,0,0,1,3.3-7.875,11.132,11.132,0,0,1,15.826,0,10.716,10.716,0,0,1,3.328,7.875,10.857,10.857,0,0,1-3.328,7.951,10.8,10.8,0,0,1-7.9,3.327M636.109,28.3h19.509V85.5H636.109Z" transform="translate(-1065 -7075)" fill="#333"/>
      <path id="Trazado_31881" data-name="Trazado 31881" d="M703.119,85.5V56.9q0-6.5-2.21-9.805t-7.087-3.3a9.337,9.337,0,0,0-7.8,3.454Q683.3,50.7,683.306,56.9V85.5H663.8V28.3H682.39l.916,6.808a13.871,13.871,0,0,1,6.528-5.767,25.454,25.454,0,0,1,10.745-2.058q11.785,0,16.893,7.52t5.105,22.1V85.5Z" transform="translate(-1065 -7075)" fill="#333"/>
      <path id="Trazado_31882" data-name="Trazado 31882" d="M244.953,163.746a27.2,27.2,0,0,1-10.948-2.031,13.648,13.648,0,0,1-6.731-5.742v27.638H207.765V105.576h18.594l.915,6.807a13.117,13.117,0,0,1,6.655-5.817,27.577,27.577,0,0,1,11.024-2.007,24.23,24.23,0,0,1,18.7,8.281q7.517,8.283,7.518,21.338t-7.518,21.313a24.259,24.259,0,0,1-18.7,8.255m3.226-39.094a12.359,12.359,0,0,0-17.4,0,14.7,14.7,0,0,0,0,19.052,12.356,12.356,0,0,0,17.4,0,14.778,14.778,0,0,0,0-19.052" transform="translate(-1065 -7075)" fill="#333"/>
      <path id="Trazado_31883" data-name="Trazado 31883" d="M302.362,104.559a26.886,26.886,0,0,1,10.948,2.058,13.774,13.774,0,0,1,6.731,5.767l.915-6.808H339.55v57.205H320.956l-.915-6.807a13,13,0,0,1-6.655,5.792,27.894,27.894,0,0,1-11.024,1.98,24.254,24.254,0,0,1-18.7-8.255q-7.519-8.256-7.519-21.312t7.519-21.338a24.222,24.222,0,0,1,18.7-8.282M299.136,143.7a12.356,12.356,0,0,0,17.4,0,14.7,14.7,0,0,0,0-19.052,12.359,12.359,0,0,0-17.4,0,14.778,14.778,0,0,0,0,19.052" transform="translate(-1065 -7075)" fill="#333"/>
      <path id="Trazado_31884" data-name="Trazado 31884" d="M398.838,121.782,379.329,122.8a5.748,5.748,0,0,0-1.9-3.608,5.943,5.943,0,0,0-4.19-1.524,8.541,8.541,0,0,0-4.65,1.067,3.421,3.421,0,0,0-1.65,3.048,3.292,3.292,0,0,0,1.956,3,22.231,22.231,0,0,0,5.308,1.879q5.945,1.475,9.754,2.617a59.612,59.612,0,0,1,7.317,2.718,18.533,18.533,0,0,1,5.308,3.327,12.55,12.55,0,0,1,2.821,4.166,12.812,12.812,0,0,1,.863,5.614q-.355,9.1-7.112,13.844t-19.763,4.75q-12.7,0-19.788-4.775a16.256,16.256,0,0,1-7.444-13.565l19.458-1.423a6.689,6.689,0,0,0,2.515,4.573,8.151,8.151,0,0,0,5.259,1.727,10.225,10.225,0,0,0,5.232-1.193,3.731,3.731,0,0,0,2.033-3.379q0-2.286-3.15-4.014a30.4,30.4,0,0,0-7.875-2.794q-4.47-1.116-7.341-1.9a52.819,52.819,0,0,1-5.614-1.88,18.536,18.536,0,0,1-4.318-2.286,13.607,13.607,0,0,1-2.794-2.87,9.923,9.923,0,0,1-1.677-3.76,22.95,22.95,0,0,1-.457-4.877,13.75,13.75,0,0,1,6.858-12.5q6.859-4.215,19.408-4.217,11.581,0,18.187,4.42a15.306,15.306,0,0,1,6.96,12.8" transform="translate(-1065 -7075)" fill="#333"/>
      <path id="Trazado_31885" data-name="Trazado 31885" d="M457.923,121.782,438.414,122.8a5.748,5.748,0,0,0-1.9-3.608,5.943,5.943,0,0,0-4.19-1.524,8.541,8.541,0,0,0-4.65,1.067,3.421,3.421,0,0,0-1.65,3.048,3.292,3.292,0,0,0,1.956,3,22.232,22.232,0,0,0,5.308,1.879q5.945,1.475,9.754,2.617a59.612,59.612,0,0,1,7.317,2.718,18.533,18.533,0,0,1,5.308,3.327,12.549,12.549,0,0,1,2.821,4.166,12.812,12.812,0,0,1,.863,5.614q-.355,9.1-7.112,13.844t-19.763,4.75q-12.7,0-19.788-4.775a16.256,16.256,0,0,1-7.444-13.565l19.458-1.423a6.689,6.689,0,0,0,2.515,4.573,8.151,8.151,0,0,0,5.259,1.727,10.225,10.225,0,0,0,5.232-1.193,3.731,3.731,0,0,0,2.033-3.379q0-2.286-3.15-4.014a30.4,30.4,0,0,0-7.875-2.794q-4.47-1.116-7.341-1.9a52.816,52.816,0,0,1-5.614-1.88,18.535,18.535,0,0,1-4.318-2.286,13.606,13.606,0,0,1-2.794-2.87,9.922,9.922,0,0,1-1.677-3.76,22.948,22.948,0,0,1-.457-4.877,13.75,13.75,0,0,1,6.858-12.5q6.859-4.215,19.408-4.217,11.582,0,18.187,4.42a15.306,15.306,0,0,1,6.96,12.8" transform="translate(-1065 -7075)" fill="#333"/>
      <rect id="Rect치ngulo_4490" data-name="Rect치ngulo 4490" width="722.577" height="191.106" transform="translate(-1065 -7075)" fill="none"/>
      <g id="Grupo_19772" data-name="Grupo 19772" transform="translate(-1065 -7075)">
        <g id="Grupo_19771" data-name="Grupo 19771" clip-path="url(#clip-path)">
          <rect id="Rect치ngulo_4491" data-name="Rect치ngulo 4491" width="201.49" height="183.14" transform="translate(-11.77 7.966)" fill="url(#linear-gradient)"/>
        </g>
      </g>
    </g>
  </g>
</svg>
