<svg xmlns="http://www.w3.org/2000/svg" xmlns:xlink="http://www.w3.org/1999/xlink" width="200" height="60" viewBox="0 0 200 60">
  <defs>
    <clipPath id="clip-MountainPass-white">
      <rect width="200" height="60"/>
    </clipPath>
  </defs>
  <g id="MountainPass-white" clip-path="url(#clip-MountainPass-white)">
    <g id="Grupo_19747" data-name="Grupo 19747" transform="translate(-16.341 -19)">
      <g id="Grupo_7" data-name="Grupo 7" transform="translate(80.13 23.67)">
        <path id="Trazado_1" data-name="Trazado 1" d="M221.527,26.221a6.521,6.521,0,0,1,2.231.348,4.179,4.179,0,0,1,1.588.991,4.908,4.908,0,0,1,1.025,1.628,9.1,9.1,0,0,1,.556,2.157,19.99,19.99,0,0,1,.161,2.686v7.543h-5.145V34.032q0-3.457-2.331-3.457a2.3,2.3,0,0,0-1.95.911,4.137,4.137,0,0,0-.69,2.546v7.543h-5.145V34.032q0-3.457-2.344-3.457a2.321,2.321,0,0,0-1.956.911,4.106,4.106,0,0,0-.7,2.546v7.543h-5.145V26.489h4.9l.241,1.8q1.1-2.063,4.555-2.063,3.671,0,4.864,2.974a5.454,5.454,0,0,1,5.279-2.974" transform="translate(-201.135 -19.026)" fill="#fff"/>
        <path id="Trazado_2" data-name="Trazado 2" d="M312.158,41.336a10.114,10.114,0,0,1-6.378,0,8.291,8.291,0,0,1-2.659-1.487,6.831,6.831,0,0,1-1.835-2.465,8.478,8.478,0,0,1,0-6.639,6.761,6.761,0,0,1,1.835-2.465,8.465,8.465,0,0,1,2.659-1.487,9.993,9.993,0,0,1,6.378,0,8.468,8.468,0,0,1,2.659,1.487,6.775,6.775,0,0,1,1.836,2.465,8.484,8.484,0,0,1,0,6.639,6.845,6.845,0,0,1-1.836,2.465,8.294,8.294,0,0,1-2.659,1.487m-5.493-4.756a3.267,3.267,0,0,0,4.6,0,3.876,3.876,0,0,0,0-5.024,3.267,3.267,0,0,0-4.6,0,3.875,3.875,0,0,0,0,5.024" transform="translate(-272.916 -19.062)" fill="#fff"/>
        <path id="Trazado_3" data-name="Trazado 3" d="M373.039,27.2V34.74a4.675,4.675,0,0,0,.583,2.586,2.085,2.085,0,0,0,1.869.871,2.444,2.444,0,0,0,2.05-.911,4.052,4.052,0,0,0,.71-2.546V27.2H383.4V42.283h-4.917l-.228-1.8A3.625,3.625,0,0,1,376.529,42a6.784,6.784,0,0,1-2.834.536,5,5,0,0,1-4.455-1.976,10.359,10.359,0,0,1-1.346-5.822V27.2Z" transform="translate(-321.738 -19.734)" fill="#fff"/>
        <path id="Trazado_4" data-name="Trazado 4" d="M442.62,41.575V34.032a4.676,4.676,0,0,0-.583-2.586,2.086,2.086,0,0,0-1.869-.871,2.464,2.464,0,0,0-2.057.911,4.024,4.024,0,0,0-.717,2.546v7.543H432.25V26.489h4.9l.241,1.8a3.658,3.658,0,0,1,1.721-1.52,6.707,6.707,0,0,1,2.834-.543,4.991,4.991,0,0,1,4.455,1.983,10.394,10.394,0,0,1,1.346,5.828v7.543Z" transform="translate(-368.435 -19.026)" fill="#fff"/>
        <path id="Trazado_5" data-name="Trazado 5" d="M498.476,14.99h5.131v3.35h3.376v3.993h-3.376v5.2a1.522,1.522,0,0,0,1.032,1.661,4.654,4.654,0,0,0,2.345.067v4.194a20.366,20.366,0,0,1-2.988.214q-2.961,0-4.24-1.447a6.664,6.664,0,0,1-1.28-4.5V22.332h-1.822V18.34h1.822Z" transform="translate(-415.167 -10.877)" fill="#fff"/>
        <path id="Trazado_6" data-name="Trazado 6" d="M547.513,26.221a7.088,7.088,0,0,1,2.887.542,3.634,3.634,0,0,1,1.775,1.521l.241-1.8h4.9V41.575h-4.9l-.241-1.8a3.429,3.429,0,0,1-1.755,1.527,7.35,7.35,0,0,1-2.907.523,6.4,6.4,0,0,1-4.931-2.177,8.022,8.022,0,0,1-1.983-5.62,8.047,8.047,0,0,1,1.983-5.627,6.388,6.388,0,0,1,4.931-2.184m-.851,10.323a3.259,3.259,0,0,0,4.589,0,3.876,3.876,0,0,0,0-5.024,3.259,3.259,0,0,0-4.589,0,3.9,3.9,0,0,0,0,5.024" transform="translate(-447.054 -19.026)" fill="#fff"/>
        <path id="Trazado_7" data-name="Trazado 7" d="M610.992,5.922a2.838,2.838,0,0,1-2.09-.878,2.873,2.873,0,0,1-.871-2.1A2.835,2.835,0,0,1,608.9.871a2.935,2.935,0,0,1,4.173,0,2.824,2.824,0,0,1,.878,2.077,2.862,2.862,0,0,1-.878,2.1,2.846,2.846,0,0,1-2.083.878M608.42,7.463h5.145V22.549H608.42Z" transform="translate(-495.983)" fill="#fff"/>
        <path id="Trazado_8" data-name="Trazado 8" d="M646.428,41.575V34.032a4.676,4.676,0,0,0-.583-2.586,2.086,2.086,0,0,0-1.869-.871,2.464,2.464,0,0,0-2.057.911,4.025,4.025,0,0,0-.717,2.546v7.543h-5.145V26.489h4.9l.241,1.8a3.659,3.659,0,0,1,1.721-1.52,6.708,6.708,0,0,1,2.834-.543,4.991,4.991,0,0,1,4.455,1.983,10.394,10.394,0,0,1,1.346,5.828v7.543Z" transform="translate(-516.319 -19.026)" fill="#fff"/>
        <path id="Trazado_9" data-name="Trazado 9" d="M209.49,122.829a7.163,7.163,0,0,1-2.887-.536,3.6,3.6,0,0,1-1.775-1.514v7.288h-5.145v-20.58h4.9l.241,1.8a3.459,3.459,0,0,1,1.755-1.534,7.273,7.273,0,0,1,2.907-.529,6.389,6.389,0,0,1,4.931,2.184,8.967,8.967,0,0,1,0,11.248,6.4,6.4,0,0,1-4.931,2.177m.851-10.31a3.259,3.259,0,0,0-4.589,0,3.876,3.876,0,0,0,0,5.024,3.259,3.259,0,0,0,4.589,0,3.9,3.9,0,0,0,0-5.024" transform="translate(-199.683 -77.799)" fill="#fff"/>
        <path id="Trazado_10" data-name="Trazado 10" d="M272.32,107.221a7.088,7.088,0,0,1,2.887.542,3.633,3.633,0,0,1,1.775,1.521l.241-1.8h4.9v15.086h-4.9l-.241-1.8a3.429,3.429,0,0,1-1.755,1.527,7.35,7.35,0,0,1-2.907.523,6.4,6.4,0,0,1-4.931-2.177,8.966,8.966,0,0,1,0-11.248,6.388,6.388,0,0,1,4.931-2.184m-.851,10.323a3.259,3.259,0,0,0,4.589,0,3.876,3.876,0,0,0,0-5.024,3.259,3.259,0,0,0-4.589,0,3.9,3.9,0,0,0,0,5.024" transform="translate(-247.372 -77.8)" fill="#fff"/>
        <path id="Trazado_11" data-name="Trazado 11" d="M346.585,111.762l-5.145.268a1.516,1.516,0,0,0-.5-.951,1.566,1.566,0,0,0-1.105-.4,2.255,2.255,0,0,0-1.226.281.9.9,0,0,0-.435.8.868.868,0,0,0,.516.791,5.878,5.878,0,0,0,1.4.5q1.568.389,2.573.69a15.793,15.793,0,0,1,1.93.717,4.894,4.894,0,0,1,1.4.878,3.3,3.3,0,0,1,.744,1.1,3.372,3.372,0,0,1,.228,1.48,4.41,4.41,0,0,1-1.876,3.651,9.033,9.033,0,0,1-5.212,1.253,9.262,9.262,0,0,1-5.218-1.259,4.288,4.288,0,0,1-1.963-3.577l5.131-.375a1.765,1.765,0,0,0,.663,1.206,2.149,2.149,0,0,0,1.387.455,2.7,2.7,0,0,0,1.38-.315.983.983,0,0,0,.536-.891q0-.6-.831-1.058a8,8,0,0,0-2.077-.737q-1.179-.295-1.936-.5a13.965,13.965,0,0,1-1.48-.5,4.908,4.908,0,0,1-1.139-.6,3.576,3.576,0,0,1-.737-.757,2.618,2.618,0,0,1-.442-.991,6.051,6.051,0,0,1-.12-1.286,3.626,3.626,0,0,1,1.809-3.3,9.807,9.807,0,0,1,5.118-1.112,8.543,8.543,0,0,1,4.8,1.166,4.037,4.037,0,0,1,1.835,3.376" transform="translate(-296.194 -77.799)" fill="#fff"/>
        <path id="Trazado_12" data-name="Trazado 12" d="M403.372,111.762l-5.145.268a1.515,1.515,0,0,0-.5-.951,1.566,1.566,0,0,0-1.105-.4,2.255,2.255,0,0,0-1.226.281.9.9,0,0,0-.435.8.868.868,0,0,0,.516.791,5.878,5.878,0,0,0,1.4.5q1.568.389,2.573.69a15.793,15.793,0,0,1,1.93.717,4.894,4.894,0,0,1,1.4.878,3.3,3.3,0,0,1,.744,1.1,3.374,3.374,0,0,1,.228,1.48,4.41,4.41,0,0,1-1.876,3.651,9.034,9.034,0,0,1-5.212,1.253,9.262,9.262,0,0,1-5.218-1.259,4.288,4.288,0,0,1-1.963-3.577l5.131-.375a1.766,1.766,0,0,0,.663,1.206,2.149,2.149,0,0,0,1.387.455,2.7,2.7,0,0,0,1.38-.315.983.983,0,0,0,.536-.891q0-.6-.831-1.058a8.006,8.006,0,0,0-2.077-.737q-1.179-.295-1.936-.5a13.961,13.961,0,0,1-1.48-.5,4.908,4.908,0,0,1-1.139-.6,3.578,3.578,0,0,1-.737-.757,2.617,2.617,0,0,1-.442-.991,6.051,6.051,0,0,1-.12-1.286,3.626,3.626,0,0,1,1.809-3.3,9.807,9.807,0,0,1,5.118-1.112,8.543,8.543,0,0,1,4.8,1.166,4.036,4.036,0,0,1,1.835,3.376" transform="translate(-337.399 -77.799)" fill="#fff"/>
      </g>
      <path id="Trazado_13" data-name="Trazado 13" d="M37.48,14.885,10.52,22.108A14.182,14.182,0,0,0,4.162,45.835L23.9,65.572a14.182,14.182,0,0,0,23.727-6.358l7.224-26.96A14.182,14.182,0,0,0,37.48,14.885M27.512,48.606,24.624,59.382a10.628,10.628,0,0,1-1.332-1.124L7.1,42.065a10.579,10.579,0,0,1-1.124-1.332l10.775-2.887a8.786,8.786,0,0,1,10.761,10.76M46.454,31.521,40.528,53.639A10.258,10.258,0,0,1,31.2,61.257l5.284-19.72A10.342,10.342,0,0,0,23.821,28.871L4.1,34.155a10.258,10.258,0,0,1,7.617-9.325L33.837,18.9A10.3,10.3,0,0,1,46.454,31.521" transform="translate(17.341 6.614)" fill="#fff"/>
    </g>
  </g>
</svg>
