<svg xmlns="http://www.w3.org/2000/svg" xmlns:xlink="http://www.w3.org/1999/xlink" width="147" height="51" viewBox="0 0 147 51">
  <defs>
    <clipPath id="clip-webpay">
      <rect width="147" height="51"/>
    </clipPath>
  </defs>
  <g id="webpay" clip-path="url(#clip-webpay)">
    <g id="_1.Webpay_FB_800" data-name="1.Webpay_FB_800" transform="translate(-2 -4.131)">
      <g id="Grupo_19725" data-name="Grupo 19725" transform="translate(12.008 42.759)">
        <path id="Trazado_29" data-name="Trazado 29" d="M45.155,220.725a.776.776,0,1,0-.77-.776.774.774,0,0,0,.77.776" transform="translate(-44.385 -217.069)" fill="rgba(0,0,0,0.8)"/>
        <path id="Trazado_30" data-name="Trazado 30" d="M380.4,254.9a.776.776,0,1,0-.77-.776.774.774,0,0,0,.77.776" transform="translate(-319.973 -245.164)" fill="rgba(0,0,0,0.8)"/>
        <path id="Trazado_31" data-name="Trazado 31" d="M150.9,222.652v0a2.745,2.745,0,0,0-.847-2.087l-.038-.034-.009-.008h0a3.092,3.092,0,0,0-2.031-.68h-.2a3.084,3.084,0,0,0-2.025.68h0l-.047.042a2.741,2.741,0,0,0-.847,2.078h0v0l0,4.454a.219.219,0,0,0,.07.159.249.249,0,0,0,.169.067h.793a.249.249,0,0,0,.169-.067.218.218,0,0,0,.07-.159l0-4.3a1.9,1.9,0,0,1,.457-1.373,2.075,2.075,0,0,1,2.6,0,1.9,1.9,0,0,1,.457,1.374v4.3a.219.219,0,0,0,.07.159.249.249,0,0,0,.169.067h.794a.248.248,0,0,0,.169-.067.216.216,0,0,0,.07-.159Z" transform="translate(-126.969 -217.616)" fill="rgba(0,0,0,0.8)"/>
        <path id="Trazado_32" data-name="Trazado 32" d="M306.244,222.652v0a2.745,2.745,0,0,0-.847-2.087l-.038-.034-.009-.008h0a3.092,3.092,0,0,0-2.031-.68h-.2a3.084,3.084,0,0,0-2.025.68h0l-.047.042a2.742,2.742,0,0,0-.847,2.078h0v0l0,4.454a.22.22,0,0,0,.07.159.248.248,0,0,0,.169.067h.793a.249.249,0,0,0,.169-.067.218.218,0,0,0,.07-.159l0-4.3a1.9,1.9,0,0,1,.457-1.373,2.076,2.076,0,0,1,2.6,0,1.9,1.9,0,0,1,.457,1.374v4.3a.22.22,0,0,0,.07.159.249.249,0,0,0,.169.067h.794a.248.248,0,0,0,.169-.067.217.217,0,0,0,.07-.159Z" transform="translate(-254.669 -217.616)" fill="rgba(0,0,0,0.8)"/>
        <path id="Trazado_33" data-name="Trazado 33" d="M227.6,213.458v.034a4.156,4.156,0,0,1-.347,1.9,1.573,1.573,0,0,1-1.52.809h-.045a1.575,1.575,0,0,1-1.532-.809,4.146,4.146,0,0,1-.348-1.911v-.043a3.587,3.587,0,0,1,.348-1.774,1.573,1.573,0,0,1,1.532-.809h.032a1.575,1.575,0,0,1,1.533.81,3.593,3.593,0,0,1,.346,1.773Zm.235-3a.129.129,0,0,0-.014-.015,2.981,2.981,0,0,0-2.01-.675.414.414,0,0,0-.045,0,2.868,2.868,0,0,0-1.956.648h0v-.443h0v-2.244a.219.219,0,0,0-.07-.159.249.249,0,0,0-.169-.066h-.781a.25.25,0,0,0-.169.066.216.216,0,0,0-.07.159v2.244h0v4.765h0v2.232a.219.219,0,0,0,.07.159.249.249,0,0,0,.169.066h.781a.248.248,0,0,0,.169-.066.215.215,0,0,0,.07-.159V216.5a2.567,2.567,0,0,0,1.956.784h.048a2.984,2.984,0,0,0,2.007-.677,4.237,4.237,0,0,0,1.037-3.153,3.939,3.939,0,0,0-1.023-3" transform="translate(-190.849 -207.473)" fill="rgba(0,0,0,0.8)"/>
        <path id="Trazado_34" data-name="Trazado 34" d="M110.324,224.627a1.424,1.424,0,0,1-.307,1.078,2.163,2.163,0,0,1-1.583.45h-.019a2.176,2.176,0,0,1-1.245-.271.863.863,0,0,1-.335-.768V225.1a.92.92,0,0,1,.34-.791,1.987,1.987,0,0,1,1.2-.288h1.953Zm1.312-2.3v-.005a2.28,2.28,0,0,0-.778-1.836,3.5,3.5,0,0,0-2.272-.641h-.049a3.14,3.14,0,0,0-2.469.883l0,0-.036.043c-.047.052-.093.105-.137.163v0l-.064.076a.217.217,0,0,0-.049.167.251.251,0,0,0,.085.161l.036.031a.37.37,0,0,0,.046.046l.139.114.37.32a.244.244,0,0,0,.171.06.213.213,0,0,0,.155-.075l.238-.282h0a1.412,1.412,0,0,1,.484-.355,2.733,2.733,0,0,1,1.075-.172h.022a2.044,2.044,0,0,1,1.355.355,1.263,1.263,0,0,1,.369,1.024s0,.012,0,.023v.467H108.29a3.218,3.218,0,0,0-2,.574,2.009,2.009,0,0,0-.767,1.637v.026a2.138,2.138,0,0,0,.6,1.5,2.981,2.981,0,0,0,2.262.7h.543a2.711,2.711,0,0,0,2.091-.714,2.889,2.889,0,0,0,.62-2.029v-2.26Z" transform="translate(-94.643 -217.625)" fill="rgba(0,0,0,0.8)"/>
        <path id="Trazado_35" data-name="Trazado 35" d="M262.225,225.18v-.017a.918.918,0,0,1,.34-.79,1.984,1.984,0,0,1,1.2-.288h1.953v.607a1.423,1.423,0,0,1-.308,1.078,2.167,2.167,0,0,1-1.583.449h-.018a2.175,2.175,0,0,1-1.246-.271.861.861,0,0,1-.335-.767m4.8-2.784v-.005a2.277,2.277,0,0,0-.778-1.834,3.5,3.5,0,0,0-2.272-.641h-.049a3.142,3.142,0,0,0-2.469.883l0,0-.036.043c-.047.052-.093.105-.138.162v0l-.064.075a.216.216,0,0,0-.049.167.252.252,0,0,0,.085.161l.036.031a.387.387,0,0,0,.046.046l.139.114.37.32a.246.246,0,0,0,.17.06.214.214,0,0,0,.155-.075l.238-.282h0a1.416,1.416,0,0,1,.484-.355,2.733,2.733,0,0,1,1.075-.172h.022a2.045,2.045,0,0,1,1.355.355,1.263,1.263,0,0,1,.369,1.023s0,.012,0,.023v.467h-2.034a3.217,3.217,0,0,0-2,.573,2.007,2.007,0,0,0-.767,1.636v.026a2.134,2.134,0,0,0,.6,1.5,2.981,2.981,0,0,0,2.262.7h.543a2.712,2.712,0,0,0,2.091-.714,2.885,2.885,0,0,0,.62-2.028V222.4Z" transform="translate(-222.382 -217.68)" fill="rgba(0,0,0,0.8)"/>
        <path id="Trazado_36" data-name="Trazado 36" d="M59.162,209.7h-1.34v-1.358h0v-.657a.223.223,0,0,0-.231-.214h-.805a.239.239,0,0,0-.163.063.21.21,0,0,0-.069.152v1.211h0v6.365a1.913,1.913,0,0,0,.477,1.335,1.886,1.886,0,0,0,1.4.554h.39v0h.339a.216.216,0,0,0,.158-.07.251.251,0,0,0,.066-.17v-.787a.252.252,0,0,0-.066-.17.214.214,0,0,0-.158-.07h-.623a1.062,1.062,0,0,1-.315-.051.531.531,0,0,1-.123-.062.485.485,0,0,1-.09-.074.873.873,0,0,1-.188-.619v-4.1h1.34a.216.216,0,0,0,.158-.07.252.252,0,0,0,.066-.17v-.787a.252.252,0,0,0-.066-.17.214.214,0,0,0-.158-.07" transform="translate(-54.388 -207.448)" fill="rgba(0,0,0,0.8)"/>
        <path id="Trazado_37" data-name="Trazado 37" d="M82.275,220.8l-.074-.083a.07.07,0,0,0-.017-.028l-.045-.046h0l-.062-.064-.051-.056,0,0a2.172,2.172,0,0,0-1.627-.682H80.35a1.671,1.671,0,0,0-1.239.558l-.209.249v-.556a.218.218,0,0,0-.07-.159.249.249,0,0,0-.169-.066h-.781a.248.248,0,0,0-.169.066.216.216,0,0,0-.07.159V227.1a.218.218,0,0,0,.07.159.247.247,0,0,0,.169.066h.781a.249.249,0,0,0,.169-.066.216.216,0,0,0,.07-.159v-.121s0,0,0,0v-4.16c0-.005,0-.01,0-.016v-.337a1.76,1.76,0,0,1,.347-.988,1.179,1.179,0,0,1,.958-.446,1.258,1.258,0,0,1,.5.08,1.335,1.335,0,0,1,.416.317l.037.039.17.189a.217.217,0,0,0,.16.072.25.25,0,0,0,.171-.066l.585-.533a.254.254,0,0,0,.082-.165.218.218,0,0,0-.054-.166" transform="translate(-71.725 -217.616)" fill="rgba(0,0,0,0.8)"/>
        <path id="Trazado_38" data-name="Trazado 38" d="M188.242,223.473l-.009-.006h0a3.344,3.344,0,0,0-1.655-.482l-1.166-.1a1.818,1.818,0,0,1-.96-.279.682.682,0,0,1-.242-.575v-.006h0v-.015a.858.858,0,0,1,.36-.735,2.042,2.042,0,0,1,1.187-.288h.005a3.209,3.209,0,0,1,1.775.478h0l.3.207a.206.206,0,0,0,.165.032.244.244,0,0,0,.147-.1l.435-.635a.251.251,0,0,0,.042-.175.215.215,0,0,0-.035-.091.225.225,0,0,0-.069-.08l-.05-.036a4.728,4.728,0,0,0-2.709-.775,3.439,3.439,0,0,0-2.068.587,1.964,1.964,0,0,0-.816,1.6v.031a1.789,1.789,0,0,0,.64,1.432,3.2,3.2,0,0,0,1.8.6l1.2.1a1.589,1.589,0,0,1,.875.273.7.7,0,0,1,.232.585v.018a.878.878,0,0,1-.424.791,2.755,2.755,0,0,1-1.438.3h-.023a2.979,2.979,0,0,1-1.986-.6l-.253-.214a.213.213,0,0,0-.166-.048.25.25,0,0,0-.159.089l-.5.606a.253.253,0,0,0-.058.174.218.218,0,0,0,.076.156l.238.2h0l.014.01.031.026,0,0a4.6,4.6,0,0,0,2.781.789h.02a4.006,4.006,0,0,0,2.283-.6,2.01,2.01,0,0,0,.9-1.682v-.034a1.786,1.786,0,0,0-.714-1.537" transform="translate(-158.014 -217.598)" fill="rgba(0,0,0,0.8)"/>
        <path id="Trazado_39" data-name="Trazado 39" d="M345.791,216.747l-.977-1.379-1.958-2.859,1.522-1.616.886-.936.054-.06a.169.169,0,0,0,.008-.251.248.248,0,0,0-.169-.067h-1.017a.329.329,0,0,0-.183.086h0l-3.417,3.644v-5.732a.22.22,0,0,0-.07-.159.249.249,0,0,0-.169-.066h-.781a.248.248,0,0,0-.169.066.216.216,0,0,0-.07.159v9.259a.22.22,0,0,0,.07.159.251.251,0,0,0,.169.066h.781a.251.251,0,0,0,.169-.066.217.217,0,0,0,.07-.159v-1.869l1.48-1.6,1,1.491h0l1.4,2.093a.232.232,0,0,0,.2.12h1.018A.248.248,0,0,0,345.8,217a.188.188,0,0,0-.008-.251" transform="translate(-286.805 -207.35)" fill="rgba(0,0,0,0.8)"/>
        <path id="Trazado_40" data-name="Trazado 40" d="M326.717,207.748h.138l.205.6.205-.6h.136v.714h-.092v-.423c0-.015,0-.037,0-.072s0-.068,0-.108l-.2.6h-.1l-.2-.6v.1c0,.038,0,.064,0,.079v.423h-.091Z" transform="translate(-276.478 -207.677)" fill="rgba(0,0,0,0.8)"/>
        <path id="Trazado_41" data-name="Trazado 41" d="M333.2,208.075a.184.184,0,0,0,.106-.027.115.115,0,0,0,.038-.1.105.105,0,0,0-.055-.1.171.171,0,0,0-.077-.015h-.231v.244Zm-.315-.327h.326a.3.3,0,0,1,.132.024.166.166,0,0,1,.1.168.186.186,0,0,1-.026.105.21.21,0,0,1-.076.066.157.157,0,0,1,.065.044.163.163,0,0,1,.021.091l.005.094a.3.3,0,0,0,.006.062.061.061,0,0,0,.032.042v.018h-.118c0-.008,0-.015-.008-.024a.3.3,0,0,1,0-.056l-.007-.12a.1.1,0,0,0-.05-.094.215.215,0,0,0-.086-.013h-.215v.307h-.1Z" transform="translate(-281.551 -207.677)" fill="rgba(0,0,0,0.8)"/>
        <path id="Trazado_42" data-name="Trazado 42" d="M331.533,211.257a.047.047,0,0,1-.047-.052.049.049,0,1,1,.047.052" transform="translate(-280.399 -210.476)" fill="rgba(0,0,0,0.8)"/>
        <path id="Trazado_43" data-name="Trazado 43" d="M337.015,211.257a.048.048,0,0,1-.049-.052.049.049,0,0,1,.05-.053.048.048,0,0,1,.049.053.048.048,0,0,1-.05.052Z" transform="translate(-284.903 -210.476)" fill="rgba(0,0,0,0.8)"/>
      </g>
      <g id="Grupo_19726" data-name="Grupo 19726" transform="translate(5 7.131)">
        <path id="Trazado_44" data-name="Trazado 44" d="M352.841,24.936v.1A12.415,12.415,0,0,1,351.8,30.71c-.792,1.426-2.066,2.378-4.541,2.416a.592.592,0,0,0-.092,0h-.041c-2.491-.025-3.782-.979-4.578-2.418A12.387,12.387,0,0,1,341.511,25V24.87a10.719,10.719,0,0,1,1.041-5.3c.8-1.44,2.087-2.395,4.578-2.418h.1c2.493.023,3.779.977,4.582,2.421a10.743,10.743,0,0,1,1.034,5.3Zm.7-8.972a.47.47,0,0,0-.042-.046,8.9,8.9,0,0,0-6.006-2.017,1.2,1.2,0,0,0-.134,0,8.571,8.571,0,0,0-5.846,1.937h0V14.511h0V7.8a.653.653,0,0,0-.208-.475.741.741,0,0,0-.506-.2h-2.334a.747.747,0,0,0-.5.2.648.648,0,0,0-.208.475v6.706h0V28.748h0v6.67a.653.653,0,0,0,.208.474.744.744,0,0,0,.506.2H340.8a.739.739,0,0,0,.5-.2.64.64,0,0,0,.21-.474V34.039a7.666,7.666,0,0,0,5.843,2.341h.144a8.918,8.918,0,0,0,6-2.022c2.515-2.381,3.089-6.03,3.1-9.421-.007-3.374-.583-6.6-3.055-8.973" transform="translate(-278.543 -7.131)" fill="rgba(0,0,0,0.8)"/>
        <path id="Trazado_45" data-name="Trazado 45" d="M473.675,56.563a10.743,10.743,0,0,1-1.034,5.3c-.8,1.444-2.089,2.4-4.582,2.421h-.1c-2.491-.023-3.782-.978-4.578-2.418a10.719,10.719,0,0,1-1.041-5.3v-.129a12.387,12.387,0,0,1,1.041-5.709c.8-1.439,2.087-2.393,4.578-2.418h.041a.574.574,0,0,0,.092,0c2.474.038,3.748.99,4.541,2.416a12.417,12.417,0,0,1,1.037,5.672v.167Zm.7,8.906c2.472-2.371,3.048-5.6,3.055-8.973-.008-3.392-.583-7.041-3.1-9.421a8.917,8.917,0,0,0-6-2.022h-.144a7.667,7.667,0,0,0-5.843,2.341V46.015a.64.64,0,0,0-.21-.474.739.739,0,0,0-.5-.2H459.3a.744.744,0,0,0-.506.2.653.653,0,0,0-.208.474v6.67h0V66.922h0v6.706a.647.647,0,0,0,.208.475.747.747,0,0,0,.5.2h2.334a.741.741,0,0,0,.506-.2.653.653,0,0,0,.208-.475V66.922h0V65.6h0a8.571,8.571,0,0,0,5.846,1.937,1.167,1.167,0,0,0,.134,0,8.9,8.9,0,0,0,6.006-2.017.494.494,0,0,0,.042-.046" transform="translate(-377.876 -38.305)" fill="rgba(0,0,0,0.8)"/>
        <path id="Trazado_46" data-name="Trazado 46" d="M691.182,70.576c-.205.556-.573,1.453-.819,1.993a6.409,6.409,0,0,1-1.073,1.608,4.623,4.623,0,0,1-1.974,1.192,6.36,6.36,0,0,1-1.225.253c-.592.041-1.455.075-1.918.075a.985.985,0,0,1-.843-1.078V73.034c0-.592.241-1.078.535-1.078s1.017-.05,1.606-.111a1.891,1.891,0,0,0,.859-.362,2.3,2.3,0,0,0,.619-.77c.247-.539.611-1.437.809-2l.431-1.218a3.5,3.5,0,0,0-.011-2.028l-6.532-17.854a.705.705,0,0,1,.708-1.012h2.282a1.611,1.611,0,0,1,1.424,1.021l4.279,12.628c.191.562.5.561.684,0L695.2,47.629a1.6,1.6,0,0,1,1.417-1.024h2.322a.7.7,0,0,1,.706,1.011Z" transform="translate(-561.191 -39.581)" fill="rgba(0,0,0,0.8)"/>
        <path id="Trazado_47" data-name="Trazado 47" d="M577.829,61.861v-.051a2.711,2.711,0,0,1,1-2.333,5.861,5.861,0,0,1,3.531-.851h5.768v1.792c-.005,1.758-.391,2.73-.908,3.183-1.248,1.149-2.792,1.322-4.675,1.327h-.055a6.417,6.417,0,0,1-3.677-.8,2.542,2.542,0,0,1-.988-2.265M592,53.641v-.016a6.725,6.725,0,0,0-2.3-5.417c-1.566-1.286-3.815-1.89-6.708-1.891h-.144c-3.041-.008-5.453.653-7.291,2.607l-.008-.006-.105.126c-.138.152-.273.311-.406.478l0,.005-.188.223a.638.638,0,0,0-.145.493.745.745,0,0,0,.252.476l.106.092a1.066,1.066,0,0,0,.135.135l.411.337,1.094.945a.721.721,0,0,0,.5.178.63.63,0,0,0,.457-.222l.7-.833h0A4.2,4.2,0,0,1,579.8,50.3a8.083,8.083,0,0,1,3.173-.507h.017l.048,0c2.023,0,3.281.416,4,1.048a3.726,3.726,0,0,1,1.089,3.022c0,.009,0,.036,0,.068v1.378h-6.005A9.5,9.5,0,0,0,576.215,57a5.927,5.927,0,0,0-2.264,4.831v.076a6.305,6.305,0,0,0,1.768,4.433c1.537,1.514,3.585,2.064,6.678,2.064H584c2.833,0,4.866-.7,6.175-2.108s1.83-3.451,1.83-5.987V53.641Z" transform="translate(-472.71 -39.345)" fill="rgba(0,0,0,0.8)"/>
        <path id="Trazado_48" data-name="Trazado 48" d="M71.921,46.843a1.581,1.581,0,0,0-1.433,1.083l-4.08,14.39c-.169.6-.466.6-.66.014L61,47.913a1.663,1.663,0,0,0-1.478-1.069h-.851a1.659,1.659,0,0,0-1.476,1.07L52.491,62.329c-.192.589-.489.584-.66-.012L47.715,47.927a1.586,1.586,0,0,0-1.437-1.083H44.544a.778.778,0,0,0-.786,1.073l6.3,19.858a1.643,1.643,0,0,0,1.467,1.073h1.191a1.5,1.5,0,0,0,1.325-.953l4.707-14.046c.2-.587.52-.587.718,0l4.7,13.933a1.683,1.683,0,0,0,1.487,1.067h1.152a1.517,1.517,0,0,0,1.356-.995l6.281-19.935a.779.779,0,0,0-.787-1.074Z" transform="translate(-36.821 -39.777)" fill="rgba(0,0,0,0.8)"/>
        <path id="Trazado_49" data-name="Trazado 49" d="M239.212,55.854c0-6.531-3.465-10.588-9.043-10.588-5.662,0-9.043,4.183-9.043,11.19,0,7.216,3.41,11.19,9.6,11.19a10.077,10.077,0,0,0,7.991-3.371l.277-.277-2.658-2.333-.243.243a6.616,6.616,0,0,1-5.281,2.3c-3.666,0-5.743-2.33-5.855-6.566h14.254Zm-14.239-1.269a7.872,7.872,0,0,1,.595-3.011,5.06,5.06,0,0,1,9.2,0,7.883,7.883,0,0,1,.6,3.014Z" transform="translate(-182.668 -38.48)" fill="rgba(0,0,0,0.8)"/>
        <path id="Trazado_50" data-name="Trazado 50" d="M7.237,51.629A2.254,2.254,0,1,0,5,49.376a2.247,2.247,0,0,0,2.237,2.253" transform="translate(-5 -40.006)" fill="rgba(0,0,0,0.8)"/>
        <path id="Trazado_51" data-name="Trazado 51" d="M772.087,149.6a2.254,2.254,0,1,0-2.235-2.253,2.247,2.247,0,0,0,2.235,2.253" transform="translate(-633.751 -120.545)" fill="rgba(0,0,0,0.8)"/>
      </g>
    </g>
  </g>
</svg>
